<svg width="52" height="42" viewBox="0 0 52 42" fill="none" xmlns="http://www.w3.org/2000/svg">
<path d="M8.5 14.75C8.5 14.75 2.07125 17.25 1 26M43.5 14.75C43.5 14.75 49.9288 17.25 51 26M18.5 14.75C18.5 14.75 24.5 16.2087 26 23.5C27.5 16.2087 33.5 14.75 33.5 14.75M21 33.5C21 33.5 15.75 34.4375 13.5 41M31 33.5C31 33.5 36.25 34.4375 38.5 41" stroke="#FFA16B" stroke-width="2" stroke-linecap="round"/>
<path d="M26 36C29.4518 36 32.25 33.2018 32.25 29.75C32.25 26.2982 29.4518 23.5 26 23.5C22.5482 23.5 19.75 26.2982 19.75 29.75C19.75 33.2018 22.5482 36 26 36Z" stroke="#FFA16B" stroke-width="2" stroke-linecap="round" stroke-linejoin="round"/>
<path d="M38.5 16C42.6421 16 46 12.6421 46 8.5C46 4.35786 42.6421 1 38.5 1C34.3579 1 31 4.35786 31 8.5C31 12.6421 34.3579 16 38.5 16Z" stroke="#FFA16B" stroke-width="2" stroke-linecap="round" stroke-linejoin="round"/>
<path d="M13.5 16C17.6421 16 21 12.6421 21 8.5C21 4.35786 17.6421 1 13.5 1C9.35786 1 6 4.35786 6 8.5C6 12.6421 9.35786 16 13.5 16Z" stroke="#FFA16B" stroke-width="2" stroke-linecap="round" stroke-linejoin="round"/>
</svg>
