<svg width="2075" height="301" viewBox="0 0 2075 301" fill="none" xmlns="http://www.w3.org/2000/svg">
<path d="M395.703 228V58.3125H506.094V83.8594H426.172V130.266H500.234V155.812H426.172V202.219H506.562V228H395.703ZM563.984 153.469V228H533.984V100.734H562.578V122.297H564.219C570.078 108 582.969 99.0938 601.953 99.0938C628.438 99.0938 645.781 116.438 645.547 146.906V228H615.781V151.594C615.781 134.484 606.641 124.406 590.938 124.406C575 124.406 563.984 134.953 563.984 153.469ZM737.656 100.734V123.703H712.578V189.797C712.578 201.984 718.672 204.562 726.172 204.562C729.688 204.562 735.547 204.328 739.297 204.094V228.469C735.781 229.172 729.922 229.641 722.422 229.641C699.922 229.641 682.578 218.625 682.812 194.719V123.703H664.531V100.734H682.812V70.2656H712.578V100.734H737.656ZM760.625 228V100.734H789.688V121.828H791.094C795.547 107.297 807.969 98.8594 822.5 98.8594C825.781 98.8594 830.469 99.0938 833.281 99.5625V127.219C830.703 126.281 824.375 125.344 819.453 125.344C802.812 125.344 790.625 136.828 790.625 153V228H760.625ZM873.125 275.812C867.266 275.812 861.406 275.578 857.656 275.109V251.203C861.406 251.438 866.328 251.672 870.312 251.672C877.578 251.672 883.672 250.969 888.828 237.375L891.406 230.578L845 100.734H876.641L906.172 196.828H907.578L937.109 100.734H968.75L917.656 243.469C910.391 263.859 897.031 275.812 873.125 275.812ZM1046.56 228H988.906V58.3125H1047.5C1098.12 58.3125 1128.83 90.1875 1128.83 142.922C1128.83 195.891 1098.12 228 1046.56 228ZM1019.38 201.516H1044.92C1080.31 201.516 1098.36 182.062 1098.36 142.922C1098.36 104.016 1080.31 84.7969 1045.86 84.7969H1019.38V201.516ZM1248.12 104.953C1246.72 90.4219 1234.3 81.9844 1216.02 81.9844C1196.8 81.9844 1185.08 91.3594 1185.08 104.016C1185.08 118.312 1200.08 124.172 1214.14 127.453L1230.08 131.672C1255.39 137.531 1279.77 150.891 1279.77 180.422C1279.77 210.188 1256.33 230.578 1215.55 230.578C1175.94 230.578 1151.09 211.594 1149.69 178.078H1179.69C1181.09 195.891 1196.09 204.562 1215.31 204.562C1235.47 204.562 1249.3 194.719 1249.3 180.188C1249.3 166.828 1236.88 161.203 1218.59 156.516L1199.38 151.594C1171.48 144.328 1154.14 130.266 1154.14 105.891C1154.14 75.8906 1180.86 55.9688 1216.48 55.9688C1252.58 55.9688 1276.95 76.3594 1277.42 104.953H1248.12ZM1305.08 58.3125H1342.58L1392.97 181.594H1395.08L1445.47 58.3125H1482.97V228H1453.67V111.281H1452.03L1404.92 227.531H1383.12L1336.02 110.812H1334.61V228H1305.08V58.3125ZM1660.12 81.9062V92.4531C1659.92 104.562 1659.92 121.945 1655.82 144.406L1634.34 142.453C1637.75 124.191 1638.44 110.715 1638.83 99.875H1570.08V81.9062H1660.12ZM1615.59 122.141V157.297C1633.85 156.613 1652.6 155.246 1669.69 152.805L1670.86 168.43C1634.14 175.07 1592.54 175.656 1561.48 175.852L1559.53 158.469C1569.98 158.371 1581.7 158.273 1594.1 158.078V122.141H1615.59ZM1702.3 68.8203V123.898H1725.16V142.062H1702.3V201.047H1680.04V68.8203H1702.3ZM1707.97 224.289V241.867H1585.9V189.328H1607.77V224.289H1707.97ZM1881.41 68.8203V245.578H1859.92V68.8203H1881.41ZM1827.11 84.25V150.461H1766.37V186.008C1794.2 185.812 1818.22 184.445 1845.66 179.758L1847.62 197.531C1817.54 202.805 1791.17 203.781 1759.53 203.781H1744.1V133.273H1805.04V101.828H1743.91V84.25H1827.11ZM1970.47 119.016C1970.47 146.359 1986.68 177.414 2014.61 190.305L2002.5 207.492C1982.58 198.117 1967.83 179.172 1959.92 157.102C1951.91 181.32 1936.48 202.023 1916.17 211.789L1903.48 194.797C1931.6 181.516 1948.59 148.312 1948.79 119.016V104.172H1910.31V86.2031H2007.38V104.172H1970.47V119.016ZM2045.47 68.8203V137.57H2072.62V155.734H2045.47V245.383H2023.79V68.8203H2045.47Z" fill="white"/>
<path d="M256.48 0H260V256.48H0C0 188.457 27.0219 123.221 75.1213 75.1213C123.221 27.0219 188.457 0 256.48 0V0Z" fill="#8BDBA7"/>
<path d="M0 0H3.52C37.2014 0 70.5531 6.63405 101.671 19.5234C132.788 32.4127 161.062 51.3049 184.879 75.1213C208.695 98.9376 227.587 127.212 240.477 158.329C253.366 189.447 260 222.799 260 256.48H0V0Z" fill="#E4FCED"/>
<path d="M0 4.72656C142 4.72656 191.49 159.497 191.49 300.017L0 259.177V4.72656Z" fill="#1DB954"/>
</svg>
