<svg width="520" height="601" viewBox="0 0 520 601" fill="none" xmlns="http://www.w3.org/2000/svg">
<path d="M512.96 0H520V512.96H0C0 376.915 54.0438 246.441 150.243 150.243C246.441 54.0438 376.915 0 512.96 0V0Z" fill="#8BDBA7"/>
<path d="M0 0H7.04C74.4029 0 141.106 13.2681 203.341 39.0468C265.576 64.8254 322.125 102.61 369.757 150.243C417.39 197.875 455.175 254.424 480.953 316.659C506.732 378.894 520 445.597 520 512.96H0V0Z" fill="#E4FCED"/>
<path d="M0 9.45312C284 9.45312 382.98 318.993 382.98 600.033L0 518.353V9.45312Z" fill="#1DB954"/>
</svg>
